<svg width="44" height="44" viewBox="0 0 44 44" fill="none" xmlns="http://www.w3.org/2000/svg">
<path fill-rule="evenodd" clip-rule="evenodd" d="M1.05148 0.00678115C0.944714 -0.0215438 0.835203 0.0420431 0.806878 0.148807C0.778553 0.25557 0.84214 0.365081 0.948903 0.393406C13.1101 3.61984 18.2001 12.2967 22.9503 20.8596C23.0839 21.1005 23.2173 21.3413 23.3505 21.5819L23.3507 21.5822L23.3508 21.5824L23.351 21.5827L23.3511 21.5829L23.3513 21.5832L23.3514 21.5835C24.2999 23.2961 25.2428 24.9987 26.2348 26.6441L25.7405 27.5428C24.6106 25.7266 23.5259 23.8246 22.4328 21.8948L22.1879 21.4622C17.2526 12.7447 12.0437 3.54388 1.20972 1.22229C0.669695 1.10657 0.138109 1.45054 0.0223882 1.99056C-0.0933323 2.53059 0.250635 3.06218 0.79066 3.1779C6.15695 4.32782 10.0255 7.32312 13.2502 11.2498V23.8663C11.0402 23.1259 9.19236 22.3577 7.98588 21.2292C7.30102 20.5886 6.83096 19.8374 6.62234 18.9047C6.41214 17.9649 6.45921 16.8037 6.87377 15.336C6.94884 15.0703 6.79426 14.794 6.52851 14.7189C6.26277 14.6439 5.98649 14.7984 5.91143 15.0642C5.46592 16.6414 5.39013 17.977 5.64645 19.1229C5.90435 20.276 6.49018 21.1994 7.30277 21.9595C8.73666 23.3007 10.9001 24.1479 13.2502 24.9202V34.7001C13.2502 35.1143 13.586 35.4501 14.0002 35.4501C14.4144 35.4501 14.7502 35.1143 14.7502 34.7001V25.4007L15.0234 25.4869L15.0258 25.4876C15.2663 25.5634 15.5078 25.6396 15.7502 25.7165V35.2001C15.7502 35.3382 15.8621 35.4501 16.0002 35.4501C16.1383 35.4501 16.2502 35.3382 16.2502 35.2001V25.8759C19.2708 26.845 22.3716 27.9616 24.8704 29.9094C28.9682 36.2001 34.041 41.6435 42.3173 43.1832C42.8603 43.2842 43.3823 42.926 43.4833 42.383C43.5843 41.84 43.2261 41.318 42.6831 41.217C35.8 39.9364 31.3208 35.7081 27.5703 30.3309C27.6401 30.2677 27.7006 30.1918 27.7479 30.1043L28.0691 29.5102C31.5453 34.581 35.8827 38.7502 42.9549 40.3949C43.0625 40.4199 43.17 40.353 43.195 40.2454C43.22 40.1378 43.1531 40.0303 43.0455 40.0053C36.0241 38.3724 31.7468 34.2149 28.2836 29.1134L36.0002 14.8376V35.2001C36.0002 35.7524 36.4479 36.2001 37.0002 36.2001C37.5525 36.2001 38.0002 35.7524 38.0002 35.2001V9.20009C38.0002 8.64781 37.5525 8.20009 37.0002 8.20009C36.4989 8.20009 36.0837 8.56897 36.0114 9.05009H36.0002H35.9115L35.8688 9.12781L26.4583 26.2377C25.508 24.651 24.5976 23.0077 23.6781 21.3478L23.678 21.3475L23.6778 21.3472L23.6778 21.3471C23.5521 21.1202 23.4262 20.893 23.3001 20.6656C18.5503 12.1035 13.3903 3.28034 1.05148 0.00678115ZM36.0002 9.51135L26.6372 26.5349C26.832 26.8567 27.0285 27.1761 27.2272 27.4927L36.0002 11.2626V9.51135ZM27.0084 27.8974L26.5293 28.7836C26.3254 28.4701 26.1233 28.1535 25.9227 27.8341L26.4143 26.9402C26.6102 27.2617 26.8081 27.5809 27.0084 27.8974ZM23.5622 27.8261C22.5707 26.194 21.6263 24.5289 20.6926 22.8805L20.6357 22.78C19.1916 20.2305 17.7711 17.7226 16.2502 15.3891V24.8242C18.6627 25.5893 21.2421 26.4669 23.5622 27.8261ZM15.7502 14.634C15.4224 14.147 15.0894 13.6685 14.7502 13.1998V24.3518C14.9592 24.4178 15.1704 24.4842 15.3833 24.5511L15.3876 24.5524L15.3883 24.5526L15.3905 24.5533L15.3917 24.5537L15.7502 24.6664V14.634Z" fill="url(#paint0_linear_12_393)"/>
<defs>
<linearGradient id="paint0_linear_12_393" x1="7" y1="-6.5" x2="41" y2="56.5" gradientUnits="userSpaceOnUse">
<stop stop-color="#41D2F2"/>
<stop offset="1" stop-color="#0367A6"/>
</linearGradient>
</defs>
</svg>
